<svg width="1024" height="1024" viewBox="0 0 1024 1024" xmlns="http://www.w3.org/2000/svg">
  <defs>
    <linearGradient id="bg" x1="0" y1="100" x2="0" y2="924" gradientUnits="userSpaceOnUse">
      <stop offset="0" stop-color="#FFFFFF"/>
      <stop offset="1" stop-color="#F0F0F3"/>
    </linearGradient>
    <linearGradient id="nib" x1="512" y1="350" x2="512" y2="720" gradientUnits="userSpaceOnUse">
      <stop offset="0" stop-color="#222226"/>
      <stop offset="1" stop-color="#060608"/>
    </linearGradient>
    <filter id="nibShadow" x="-30%" y="-30%" width="160%" height="160%">
      <feDropShadow dx="0" dy="9" stdDeviation="13" flood-color="#000000" flood-opacity="0.18"/>
    </filter>
    <mask id="nibCut">
      <rect x="0" y="0" width="1024" height="1024" fill="black"/>
      <!-- nib silhouette (visible) -->
      <path d="M512 712
               C 476 616 446 524 416 442
               C 405 414 421 364 462 360
               L 562 360
               C 603 364 619 414 608 442
               C 578 524 548 616 512 712 Z" fill="white"/>
      <!-- breather hole (punched back to white background) -->
      <circle cx="512" cy="446" r="24" fill="black"/>
      <!-- ink slit (punched back to white background) -->
      <path d="M512 476 L519 486 L514 648 L512 664 L510 648 L505 486 Z" fill="black"/>
    </mask>
  </defs>

  <!-- white rounded-square background with hairline so it reads on white surfaces -->
  <rect x="100" y="100" width="824" height="824" rx="185" fill="url(#bg)" stroke="#E3E3E6" stroke-width="2"/>

  <!-- black pen nib that doubles as a downward arrow (the markdown ↓ motif) -->
  <g filter="url(#nibShadow)">
    <rect x="0" y="0" width="1024" height="1024" fill="url(#nib)" mask="url(#nibCut)"/>
  </g>
</svg>
